<?xml version="1.0" encoding="utf-8"?>
<!-- Generator: Adobe Illustrator 24.2.0, SVG Export Plug-In . SVG Version: 6.00 Build 0)  -->
<svg version="1.1" id="To_fix" xmlns="http://www.w3.org/2000/svg" xmlns:xlink="http://www.w3.org/1999/xlink" x="0px" y="0px"
	 viewBox="0 0 40 40" style="enable-background:new 0 0 40 40;" xml:space="preserve">
<style type="text/css">
	.st0{fill:none;stroke:#00243D;stroke-width:1.3;stroke-miterlimit:10;}
</style>
<path class="st0" d="M29.3,23.3l5.2,11.1c0.2,0.5,0,1.1-0.4,1.3c-0.3,0.1-0.6,0.1-0.9,0l-3.4-1.8l-0.8,3.8c-0.1,0.4-0.4,0.7-0.9,0.8
	l-0.1,0c-0.4,0-0.7-0.2-0.9-0.6l-5.2-11"/>
<path class="st0" d="M18.1,26.9L13,37.9c-0.2,0.3-0.5,0.6-0.9,0.6H12c-0.4,0-0.8-0.3-0.9-0.8L10.3,34l-3.4,1.8
	c-0.5,0.2-1.1,0-1.3-0.4c-0.1-0.3-0.1-0.6,0-0.8l5.2-11.1"/>
<path class="st0" d="M20,22.2h-0.5c-4.5-0.3-7.9-4.1-7.6-8.5c0.2-4.5,4-7.9,8.5-7.7c0,0,0,0,0,0c4.5,0.3,7.9,4.1,7.7,8.5l0,0
	C27.9,18.8,24.3,22.2,20,22.2z"/>
<path class="st0" d="M19.9,26.5L19.9,26.5c-0.2,0-0.3-0.1-0.4-0.2l-1.9-2.2l-2.7,1.1c-0.1,0.1-0.3,0.1-0.4,0
	c-0.1-0.1-0.2-0.2-0.3-0.3l-0.8-2.7L10.6,22c-0.2,0-0.3-0.1-0.4-0.2c-0.1-0.1-0.1-0.3-0.1-0.4l0.4-2.9L8,17.1
	c-0.1-0.1-0.2-0.2-0.2-0.3c0-0.1,0-0.3,0.1-0.4L9.6,14l-1.6-2.4c-0.1-0.1-0.1-0.3-0.1-0.4c0-0.2,0.1-0.3,0.3-0.4l2.5-1.4l-0.4-2.8
	c0-0.1,0-0.3,0.1-0.4C10.4,6.1,10.5,6,10.7,6l2.9-0.2l0.8-2.7c0-0.1,0.2-0.3,0.3-0.3c0.1-0.1,0.3-0.1,0.4,0l2.6,1.1l1.9-2.2
	c0.1-0.1,0.2-0.2,0.4-0.2c0.2,0,0.3,0.1,0.4,0.2l1.9,2.2l2.7-1.1c0.1-0.1,0.3-0.1,0.4,0c0.1,0.1,0.2,0.2,0.3,0.3l0.8,2.8l2.9,0.2
	c0.3,0,0.5,0.3,0.5,0.6c0,0,0,0,0,0.1l-0.5,2.8l2.5,1.4c0.1,0.1,0.2,0.2,0.3,0.3c0,0.1,0,0.3-0.1,0.4l-1.7,2.3l1.7,2.4
	c0.1,0.1,0.1,0.3,0.1,0.4c0,0.1-0.1,0.3-0.3,0.3l-2.5,1.4l0.4,2.8c0,0.2,0,0.3-0.1,0.4c-0.1,0.1-0.2,0.2-0.4,0.2l-2.9,0.2L25.6,25
	c0,0.1-0.2,0.3-0.3,0.3c-0.1,0.1-0.3,0.1-0.4,0l-2.7-1.1l-1.9,2.2C20.2,26.5,20.1,26.6,19.9,26.5z"/>
<path class="st0" d="M23.6,11L20,16.8c-0.1,0.2-0.2,0.3-0.4,0.3h-1.5c-0.2,0-0.3-0.1-0.4-0.3l-1.3-2.2"/>
</svg>
